<svg width="22" height="22" viewBox="0 0 22 22" fill="none" xmlns="http://www.w3.org/2000/svg">
<g id="eva:radio-button-off-outline">
<path id="Vector" d="M11 20.1667C9.187 20.1667 7.41472 19.6291 5.90727 18.6218C4.39982 17.6146 3.22491 16.183 2.5311 14.508C1.8373 12.833 1.65577 10.9899 2.00947 9.21172C2.36317 7.43356 3.23621 5.80021 4.51819 4.51823C5.80017 3.23625 7.43351 2.36321 9.21167 2.00951C10.9898 1.65582 12.8329 1.83735 14.5079 2.53115C16.1829 3.22495 17.6146 4.39987 18.6218 5.90732C19.629 7.41477 20.1667 9.18705 20.1667 11C20.1667 13.4312 19.2009 15.7628 17.4818 17.4819C15.7627 19.2009 13.4312 20.1667 11 20.1667ZM11 3.66671C9.5496 3.66671 8.13178 4.0968 6.92582 4.9026C5.71986 5.7084 4.77993 6.85371 4.22488 8.1937C3.66984 9.53369 3.52462 11.0082 3.80757 12.4307C4.09053 13.8532 4.78896 15.1599 5.81455 16.1855C6.84013 17.2111 8.14681 17.9095 9.56934 18.1925C10.9919 18.4754 12.4664 18.3302 13.8063 17.7752C15.1463 17.2201 16.2916 16.2802 17.0974 15.0742C17.9032 13.8683 18.3333 12.4504 18.3333 11C18.3333 9.05512 17.5607 7.18986 16.1854 5.81459C14.8102 4.43933 12.9449 3.66671 11 3.66671Z" fill="#252931"/>
</g>
</svg>
