<svg width="22" height="22" viewBox="0 0 22 22" fill="none" xmlns="http://www.w3.org/2000/svg">
<g id="fluent:delete-28-regular">
<path id="Vector" d="M9.03572 4.71427H12.9643C12.9643 4.19331 12.7573 3.69368 12.389 3.32531C12.0206 2.95693 11.521 2.74998 11 2.74998C10.479 2.74998 9.97942 2.95693 9.61104 3.32531C9.24267 3.69368 9.03572 4.19331 9.03572 4.71427ZM7.85715 4.71427C7.85715 3.88073 8.18827 3.08133 8.77767 2.49193C9.36707 1.90253 10.1665 1.57141 11 1.57141C11.8335 1.57141 12.6329 1.90253 13.2223 2.49193C13.8117 3.08133 14.1429 3.88073 14.1429 4.71427H19.0536C19.2099 4.71427 19.3598 4.77635 19.4703 4.88687C19.5808 4.99738 19.6429 5.14727 19.6429 5.30355C19.6429 5.45984 19.5808 5.60973 19.4703 5.72024C19.3598 5.83075 19.2099 5.89284 19.0536 5.89284H18.0243L17.0681 17.3666C16.9985 18.2013 16.6178 18.9794 16.0015 19.5465C15.3851 20.1137 14.5782 20.4285 13.7406 20.4286H8.25943C7.42186 20.4285 6.61489 20.1137 5.99854 19.5465C5.3822 18.9794 5.0015 18.2013 4.93193 17.3666L3.97572 5.89284H2.94643C2.79014 5.89284 2.64026 5.83075 2.52974 5.72024C2.41923 5.60973 2.35715 5.45984 2.35715 5.30355C2.35715 5.14727 2.41923 4.99738 2.52974 4.88687C2.64026 4.77635 2.79014 4.71427 2.94643 4.71427H7.85715ZM6.10658 17.2684C6.15151 17.8085 6.39778 18.312 6.79655 18.6791C7.19532 19.0461 7.71746 19.2499 8.25943 19.25H13.7406C14.2826 19.2499 14.8047 19.0461 15.2035 18.6791C15.6022 18.312 15.8485 17.8085 15.8934 17.2684L16.8426 5.89284H5.15822L6.10658 17.2684ZM9.23215 8.64284C9.38844 8.64284 9.53832 8.70493 9.64884 8.81544C9.75935 8.92595 9.82143 9.07584 9.82143 9.23213V15.9107C9.82143 16.067 9.75935 16.2169 9.64884 16.3274C9.53832 16.4379 9.38844 16.5 9.23215 16.5C9.07586 16.5 8.92597 16.4379 8.81546 16.3274C8.70495 16.2169 8.64286 16.067 8.64286 15.9107V9.23213C8.64286 9.07584 8.70495 8.92595 8.81546 8.81544C8.92597 8.70493 9.07586 8.64284 9.23215 8.64284ZM13.3571 9.23213C13.3571 9.07584 13.2951 8.92595 13.1846 8.81544C13.074 8.70493 12.9242 8.64284 12.7679 8.64284C12.6116 8.64284 12.4617 8.70493 12.3512 8.81544C12.2407 8.92595 12.1786 9.07584 12.1786 9.23213V15.9107C12.1786 16.067 12.2407 16.2169 12.3512 16.3274C12.4617 16.4379 12.6116 16.5 12.7679 16.5C12.9242 16.5 13.074 16.4379 13.1846 16.3274C13.2951 16.2169 13.3571 16.067 13.3571 15.9107V9.23213Z" fill="#252931" stroke="#252931" stroke-width="0.4"/>
</g>
</svg>
