<svg width="24" height="24" viewBox="0 0 24 24" fill="none" xmlns="http://www.w3.org/2000/svg">
<g id="mingcute:more-2-line">
<g id="Group">
<path id="Vector" d="M13.2021 16.7979C12.8833 16.4791 12.4509 16.3 12 16.3C11.5491 16.3 11.1167 16.4791 10.7979 16.7979C10.4791 17.1167 10.3 17.5491 10.3 18C10.3 18.4509 10.4791 18.8833 10.7979 19.2021C11.1167 19.5209 11.5491 19.7 12 19.7C12.4509 19.7 12.8833 19.5209 13.2021 19.2021C13.5209 18.8833 13.7 18.4509 13.7 18C13.7 17.5491 13.5209 17.1167 13.2021 16.7979ZM13.2021 10.7979C12.8833 10.4791 12.4509 10.3 12 10.3C11.5491 10.3 11.1167 10.4791 10.7979 10.7979C10.4791 11.1167 10.3 11.5491 10.3 12C10.3 12.4509 10.4791 12.8833 10.7979 13.2021C11.1167 13.5209 11.5491 13.7 12 13.7C12.4509 13.7 12.8833 13.5209 13.2021 13.2021C13.5209 12.8833 13.7 12.4509 13.7 12C13.7 11.5491 13.5209 11.1167 13.2021 10.7979ZM13.2021 4.79792C12.8833 4.47911 12.4509 4.3 12 4.3C11.5491 4.3 11.1167 4.47911 10.7979 4.79792C10.4791 5.11673 10.3 5.54913 10.3 6C10.3 6.45087 10.4791 6.88327 10.7979 7.20208C11.1167 7.52089 11.5491 7.7 12 7.7C12.4509 7.7 12.8833 7.52089 13.2021 7.20208C13.5209 6.88327 13.7 6.45087 13.7 6C13.7 5.54913 13.5209 5.11673 13.2021 4.79792Z" fill="black" stroke="black" stroke-width="0.4"/>
</g>
</g>
</svg>
