<svg width="22" height="22" viewBox="0 0 22 22" fill="none" xmlns="http://www.w3.org/2000/svg">
<g id="ph:star-thin">
<path id="Vector" d="M20.2263 8.46399C20.1628 8.26368 20.0406 8.08705 19.8756 7.95696C19.7106 7.82688 19.5103 7.74934 19.3007 7.73438L14.0181 7.30469L11.9831 2.37789C11.903 2.18304 11.7667 2.01639 11.5917 1.89912C11.4166 1.78185 11.2107 1.71924 11 1.71924C10.7893 1.71924 10.5834 1.78185 10.4083 1.89912C10.2333 2.01639 10.097 2.18304 10.0169 2.37789L7.98188 7.30469L2.6993 7.73438C2.48938 7.7522 2.28938 7.83161 2.1244 7.96264C1.95942 8.09368 1.8368 8.2705 1.77192 8.47094C1.70703 8.67139 1.70277 8.88653 1.75966 9.08938C1.81655 9.29224 1.93207 9.47378 2.09173 9.61125L6.1179 13.084L4.88727 18.2738C4.83573 18.4789 4.84668 18.6948 4.91871 18.8937C4.99074 19.0926 5.12056 19.2654 5.29152 19.39C5.46248 19.5146 5.66677 19.5853 5.87817 19.593C6.08958 19.6006 6.29845 19.5449 6.47798 19.433L11 16.6521L15.522 19.433C15.6997 19.5453 15.9071 19.6011 16.1171 19.5933C16.327 19.5855 16.5297 19.5143 16.6985 19.3892C16.8721 19.2664 17.0045 19.094 17.0784 18.8947C17.1523 18.6953 17.1643 18.4783 17.1127 18.272L15.8821 13.0797L19.9083 9.60695C20.0697 9.47019 20.1862 9.28812 20.2429 9.08433C20.2996 8.88055 20.2938 8.66443 20.2263 8.46399ZM19.4588 9.08789L15.2754 12.6973C15.2278 12.7384 15.1923 12.7917 15.1729 12.8516C15.1535 12.9115 15.1509 12.9755 15.1654 13.0367L16.4433 18.4327C16.462 18.5065 16.4579 18.5842 16.4315 18.6555C16.4051 18.7269 16.3577 18.7886 16.2955 18.8323C16.2363 18.8765 16.165 18.9017 16.0912 18.9044C16.0174 18.9072 15.9445 18.8874 15.8821 18.8478L11.1805 15.956C11.1262 15.9226 11.0637 15.9048 11 15.9048C10.9363 15.9048 10.8738 15.9226 10.8195 15.956L6.1179 18.8478C6.05555 18.8874 5.98263 18.9072 5.90881 18.9044C5.83499 18.9017 5.76375 18.8765 5.70454 18.8323C5.64232 18.7886 5.59487 18.7269 5.56848 18.6555C5.54208 18.5842 5.53798 18.5065 5.55673 18.4327L6.83462 13.0367C6.8491 12.9755 6.84651 12.9115 6.82711 12.8516C6.80771 12.7917 6.77226 12.7384 6.72462 12.6973L2.54118 9.08789C2.48339 9.03917 2.44164 8.97414 2.4214 8.90131C2.40116 8.82848 2.40337 8.75124 2.42774 8.67969C2.45015 8.60883 2.49336 8.54634 2.55175 8.50037C2.61015 8.45439 2.68102 8.42704 2.75516 8.42188L8.25001 7.97414C8.31321 7.96912 8.37379 7.94671 8.42506 7.9094C8.47632 7.87209 8.51626 7.82133 8.54048 7.76274L10.6563 2.64086C10.684 2.57143 10.7319 2.51191 10.7938 2.46997C10.8556 2.42804 10.9287 2.40563 11.0034 2.40563C11.0782 2.40563 11.1512 2.42804 11.2131 2.46997C11.275 2.51191 11.3229 2.57143 11.3506 2.64086L13.4664 7.76274C13.4901 7.82037 13.529 7.87048 13.5789 7.90771C13.6289 7.94495 13.688 7.96791 13.75 7.97414L19.2414 8.41672C19.3156 8.42188 19.3864 8.44923 19.4448 8.49521C19.5032 8.54119 19.5464 8.60367 19.5688 8.67453C19.5947 8.74644 19.5981 8.82454 19.5784 8.8984C19.5588 8.97227 19.5171 9.03837 19.4588 9.08789Z" fill="#252931" stroke="#252931" stroke-width="0.4"/>
</g>
</svg>
